<svg width="140" height="56" viewBox="0 0 140 56" fill="none" xmlns="http://www.w3.org/2000/svg">
<path d="M34.4379 17.472V24.4533L38.313 27.944M48.8787 27.944C52.9658 18.5356 42.9986 10.4907 34.4379 10.4907C25.8773 10.4907 18.9375 16.742 18.9375 24.4533C18.9375 32.1647 25.8773 38.416 34.4379 38.416C39.0675 38.416 43.223 36.5878 46.0632 33.6889M46.0632 7L51.8759 12.236M17 12.236L22.8126 7" stroke="#A1E6C1" stroke-width="2.57709" stroke-linecap="round" stroke-linejoin="round"/>
<path d="M45.6078 38.6388V25.0812H48.7498V30.9199H48.5271C48.5271 29.5344 48.7003 28.3799 49.0467 27.4563C49.393 26.5326 49.9126 25.8399 50.6053 25.3781C51.298 24.8998 52.1474 24.6606 53.1535 24.6606H53.3267C54.3493 24.6606 55.1987 24.8998 55.8749 25.3781C56.5676 25.8399 57.0872 26.5326 57.4335 27.4563C57.7964 28.3799 57.9778 29.5344 57.9778 30.9199H57.013C57.013 29.5344 57.1861 28.3799 57.5325 27.4563C57.8954 26.5326 58.4232 25.8399 59.1159 25.3781C59.8086 24.8998 60.658 24.6606 61.6641 24.6606H61.8373C62.8599 24.6606 63.7175 24.8998 64.4103 25.3781C65.1195 25.8399 65.6555 26.5326 66.0184 27.4563C66.3812 28.3799 66.5626 29.5344 66.5626 30.9199V38.6388H62.6042V30.6972C62.6042 29.955 62.4063 29.353 62.0105 28.8912C61.6311 28.4294 61.0868 28.1985 60.3776 28.1985C59.6684 28.1985 59.1076 28.4376 58.6953 28.9159C58.283 29.3778 58.0768 29.9963 58.0768 30.7714V38.6388H54.0936V30.6972C54.0936 29.955 53.8957 29.353 53.4999 28.8912C53.1205 28.4294 52.5845 28.1985 51.8918 28.1985C51.1661 28.1985 50.597 28.4376 50.1847 28.9159C49.7724 29.3778 49.5662 29.9963 49.5662 30.7714V38.6388H45.6078ZM70.5804 38.6388V25.0812H74.5388V38.6388H70.5804ZM68.7744 28.0006V25.0812H74.5388V28.0006H68.7744ZM72.1143 23.7453C71.3721 23.7453 70.8195 23.5556 70.4567 23.1762C70.1103 22.7804 69.9371 22.2856 69.9371 21.6918C69.9371 21.0816 70.1103 20.5868 70.4567 20.2074C70.8195 19.8116 71.3721 19.6137 72.1143 19.6137C72.8565 19.6137 73.4008 19.8116 73.7471 20.2074C74.11 20.5868 74.2914 21.0816 74.2914 21.6918C74.2914 22.2856 74.11 22.7804 73.7471 23.1762C73.4008 23.5556 72.8565 23.7453 72.1143 23.7453ZM78.2 38.6388V25.0812H81.3419V30.8951H81.1193C81.1193 29.5097 81.2925 28.3552 81.6388 27.4315C82.0017 26.5079 82.546 25.8152 83.2717 25.3534C83.9974 24.8916 84.8798 24.6606 85.9189 24.6606H86.092C87.6754 24.6606 88.8794 25.1802 89.7041 26.2193C90.5453 27.2419 90.9658 28.8005 90.9658 30.8951V38.6388H87.0074V30.6725C87.0074 29.9468 86.793 29.353 86.3642 28.8912C85.9354 28.4294 85.3581 28.1985 84.6324 28.1985C83.8902 28.1985 83.2882 28.4376 82.8263 28.9159C82.381 29.3778 82.1584 29.988 82.1584 30.7467V38.6388H78.2ZM99.9303 39.0841C98.9736 39.0841 98.0995 38.9109 97.3078 38.5646C96.5326 38.2182 95.8564 37.7399 95.2791 37.1296C94.7018 36.5029 94.2565 35.7689 93.9432 34.9278C93.6463 34.0866 93.4978 33.1795 93.4978 32.2064V31.6373C93.4978 30.6642 93.638 29.7571 93.9184 28.9159C94.2153 28.0748 94.6359 27.3408 95.1802 26.7141C95.7409 26.0708 96.4089 25.576 97.1841 25.2297C97.9593 24.8668 98.8252 24.6854 99.7818 24.6854C100.87 24.6854 101.811 24.9245 102.602 25.4028C103.394 25.8647 104.012 26.5574 104.458 27.481C104.903 28.3881 105.15 29.5097 105.2 30.8457L104.161 29.8808V20.5785H108.144V38.6388H105.002V33.0228H105.546C105.497 34.3093 105.225 35.4061 104.73 36.3132C104.252 37.2204 103.6 37.9131 102.775 38.3914C101.951 38.8532 101.002 39.0841 99.9303 39.0841ZM100.92 35.7689C101.53 35.7689 102.083 35.637 102.577 35.3731C103.089 35.0927 103.493 34.6886 103.79 34.1608C104.103 33.633 104.26 32.9981 104.26 32.2559V31.3405C104.26 30.6148 104.103 30.0045 103.79 29.5097C103.476 29.0149 103.064 28.6356 102.553 28.3717C102.041 28.1078 101.489 27.9758 100.895 27.9758C100.235 27.9758 99.6416 28.149 99.1138 28.4954C98.6025 28.8252 98.1984 29.287 97.9016 29.8808C97.6047 30.4581 97.4562 31.1343 97.4562 31.9095C97.4562 32.7012 97.6047 33.3856 97.9016 33.9629C98.1984 34.5402 98.6108 34.9855 99.1386 35.2989C99.6664 35.6123 100.26 35.7689 100.92 35.7689ZM117.944 39.1089C116.79 39.1089 115.767 38.9109 114.876 38.5151C114.002 38.1193 113.268 37.5915 112.674 36.9317C112.097 36.2555 111.652 35.505 111.339 34.6804C111.042 33.8392 110.893 32.9816 110.893 32.1074V31.6126C110.893 30.7055 111.042 29.8396 111.339 29.0149C111.652 28.1737 112.097 27.4233 112.674 26.7636C113.252 26.1038 113.969 25.5843 114.827 25.2049C115.701 24.8091 116.691 24.6112 117.796 24.6112C119.247 24.6112 120.468 24.941 121.457 25.6008C122.463 26.244 123.23 27.0934 123.758 28.149C124.286 29.1881 124.55 30.3261 124.55 31.5631V32.8991H112.551V30.6477H122.15L120.863 31.6868C120.863 30.8787 120.748 30.1859 120.517 29.6087C120.286 29.0314 119.94 28.5943 119.478 28.2974C119.033 27.9841 118.472 27.8274 117.796 27.8274C117.103 27.8274 116.517 27.9841 116.039 28.2974C115.561 28.6108 115.198 29.0726 114.951 29.6829C114.703 30.2766 114.579 31.0106 114.579 31.8847C114.579 32.6929 114.695 33.4021 114.926 34.0124C115.157 34.6062 115.52 35.068 116.014 35.3978C116.509 35.7277 117.152 35.8926 117.944 35.8926C118.67 35.8926 119.264 35.7524 119.725 35.4721C120.187 35.1917 120.501 34.8453 120.666 34.433H124.302C124.104 35.3401 123.717 36.1483 123.14 36.8575C122.562 37.5667 121.837 38.1193 120.962 38.5151C120.088 38.9109 119.082 39.1089 117.944 39.1089ZM127.173 38.6388V25.0812H130.315V30.8951H130.241C130.241 28.9819 130.645 27.5058 131.453 26.4667C132.277 25.4276 133.465 24.908 135.015 24.908H135.535V28.3222H134.545C133.457 28.3222 132.616 28.6191 132.022 29.2128C131.428 29.7901 131.131 30.6313 131.131 31.7363V38.6388H127.173Z" fill="#6B3FA0"/>
</svg>
